<svg width="400" height="201" viewBox="0 0 400 201" fill="none" xmlns="http://www.w3.org/2000/svg">
<path d="M80.1169 33.4449V53.3831V91.2382V111.176V167.224H54.8495V33.4449H80.1169ZM134.051 91.2382V111.176H80.1169H73.5014V91.2382H80.1169H134.051ZM141.126 33.4449V53.3831H80.1169H73.5014V33.4449H141.126Z" fill="black"/>
<path d="M357.191 172.575H377.258V29.4315H357.191V4.89914e-05H400V200.669H357.191V172.575Z" fill="#D9D9D9"/>
<path d="M310.922 131.633C310.922 129.129 310.535 126.894 309.76 124.926C309.044 122.899 307.703 121.081 305.736 119.471C303.828 117.802 301.115 116.192 297.598 114.642C294.14 113.033 289.669 111.364 284.184 109.635C278.103 107.727 272.44 105.581 267.194 103.196C261.947 100.811 257.327 98.0393 253.333 94.8796C249.398 91.7199 246.328 88.0833 244.122 83.9698C241.916 79.7966 240.813 74.9677 240.813 69.483C240.813 64.1175 241.946 59.229 244.212 54.8174C246.537 50.4057 249.815 46.6201 254.048 43.4604C258.281 40.2411 263.259 37.7671 268.982 36.0382C274.765 34.3093 281.144 33.4449 288.119 33.4449C297.777 33.4449 306.123 35.2036 313.158 38.7209C320.252 42.2383 325.737 47.0076 329.612 53.0289C333.487 59.0501 335.425 65.8166 335.425 73.3283H310.922C310.922 69.2743 310.058 65.6974 308.329 62.5973C306.66 59.4972 304.096 57.053 300.638 55.2645C297.24 53.476 292.948 52.5817 287.761 52.5817C282.754 52.5817 278.58 53.3269 275.242 54.8174C271.963 56.3078 269.489 58.3347 267.82 60.8982C266.21 63.4617 265.405 66.3233 265.405 69.483C265.405 71.8677 265.972 74.0138 267.104 75.9216C268.237 77.7697 269.936 79.5284 272.201 81.1976C274.467 82.8073 277.269 84.3275 280.607 85.7583C284.005 87.1295 287.94 88.5006 292.411 89.8718C299.565 92.018 305.825 94.4027 311.191 97.0258C316.616 99.6489 321.117 102.63 324.694 105.968C328.33 109.307 331.043 113.063 332.831 117.236C334.679 121.409 335.604 126.148 335.604 131.454C335.604 137.058 334.501 142.066 332.295 146.478C330.089 150.889 326.929 154.645 322.816 157.745C318.702 160.845 313.754 163.2 307.971 164.81C302.248 166.419 295.839 167.224 288.745 167.224C282.426 167.224 276.166 166.389 269.966 164.72C263.825 162.991 258.251 160.428 253.243 157.03C248.236 153.572 244.241 149.22 241.261 143.974C238.28 138.668 236.789 132.468 236.789 125.373H261.47C261.47 129.487 262.126 133.004 263.438 135.926C264.809 138.787 266.717 141.142 269.161 142.99C271.665 144.779 274.586 146.09 277.925 146.925C281.263 147.759 284.87 148.177 288.745 148.177C293.753 148.177 297.866 147.491 301.086 146.12C304.365 144.689 306.809 142.722 308.418 140.218C310.088 137.714 310.922 134.852 310.922 131.633Z" fill="#D9D9D9"/>
<path fill-rule="evenodd" clip-rule="evenodd" d="M0 0L218.06 4.89914e-05V29.4315H197.993V172.575H218.06V200.669L0 200.669V0ZM80.1169 53.3831V91.2382H134.051V111.176H80.1169V167.224H54.8495V33.4449H73.5014H80.1169H141.126V53.3831H80.1169Z" fill="#D9D9D9"/>
</svg>
